<?xml version="1.0" standalone="no"?>
<!DOCTYPE svg PUBLIC "-//W3C//DTD SVG 20010904//EN"
 "http://www.w3.org/TR/2001/REC-SVG-20010904/DTD/svg10.dtd">
<svg version="1.0" xmlns="http://www.w3.org/2000/svg"
 width="706.000000pt" height="706.000000pt" viewBox="0 0 706.000000 706.000000"
 preserveAspectRatio="xMidYMid meet">
<metadata>
Created by potrace 1.14, written by Peter Selinger 2001-2017
</metadata>
<g transform="translate(0.000000,706.000000) scale(0.100000,-0.100000)"
fill="#000000" stroke="none">
<path d="M3334 7015 c1 -25 0 -45 -1 -45 -2 0 -16 6 -31 14 -42 21 -101 5
-121 -32 -10 -19 -17 -224 -8 -238 3 -5 4 -24 2 -43 -4 -44 12 -89 35 -101 23
-12 100 -13 100 -1 0 5 9 11 20 14 10 3 19 2 18 -2 0 -3 0 -22 1 -43 l1 -36
63 1 62 2 2 35 c3 65 2 63 19 46 15 -15 25 -18 59 -18 34 0 43 3 66 26 23 23
24 29 22 142 -3 208 -4 216 -29 241 -27 27 -75 30 -116 9 -31 -16 -30 -18 -30
47 -1 27 -1 27 -68 27 l-68 0 2 -45z m174 -235 c3 -122 2 -140 -12 -140 -18 0
-17 -3 -21 160 -2 75 1 117 8 122 7 4 14 5 16 2 3 -2 7 -67 9 -144z m-171 79
c7 -203 4 -244 -19 -221 -10 10 -20 260 -11 275 13 22 28 -5 30 -54z"/>
<path d="M3739 6989 c-8 -4 -14 -25 -15 -46 -1 -21 -3 -38 -4 -38 -1 0 -3 -16
-6 -35 -2 -19 -11 -87 -19 -150 -21 -161 -22 -155 23 -157 20 -1 47 -5 59 -7
18 -5 26 3 51 52 17 31 42 77 56 102 l27 45 -6 -45 c-3 -25 -9 -68 -13 -97 -5
-29 -5 -58 -1 -64 8 -14 109 -25 110 -12 0 4 2 15 3 23 3 15 14 101 22 175 2
22 6 54 8 70 3 17 8 53 12 80 3 28 8 53 10 57 5 8 -45 19 -95 21 -30 2 -34 -3
-69 -68 -20 -38 -40 -73 -45 -76 -5 -3 -8 -9 -7 -13 0 -3 -4 -14 -10 -24 -7
-13 -9 -9 -5 18 20 155 22 186 9 183 -6 -1 -26 2 -46 6 -20 5 -42 5 -49 0z"/>
<path d="M3003 6958 c-42 -7 -53 -14 -54 -29 -1 -10 -2 -22 -3 -26 -7 -27 -26
-122 -29 -140 -6 -43 -15 -34 -23 24 -4 32 -8 60 -9 63 -1 3 -5 22 -10 43 l-7
38 -44 -6 c-62 -8 -73 -14 -68 -36 10 -46 12 -56 19 -99 4 -25 9 -52 10 -60 7
-42 19 -106 20 -110 1 -3 5 -25 9 -50 14 -83 13 -82 59 -74 23 4 48 7 55 7 15
0 28 27 35 73 13 78 30 154 35 150 2 -3 6 -18 8 -33 2 -15 6 -37 8 -48 3 -11
8 -42 12 -69 l7 -48 51 7 c28 3 54 9 58 13 3 4 0 43 -8 87 -15 80 -18 99 -29
165 -17 107 -31 164 -40 165 -5 2 -34 -2 -62 -7z"/>
<path d="M4131 6930 c-6 -3 -13 -24 -17 -45 -3 -22 -10 -48 -15 -57 -5 -10 -8
-18 -5 -18 3 0 0 -15 -5 -32 -5 -18 -12 -46 -15 -63 -3 -16 -14 -66 -25 -109
-20 -80 -18 -94 16 -97 6 0 21 -3 35 -6 46 -10 63 -8 65 7 13 70 17 90 27 123
10 34 13 36 26 23 12 -12 13 -22 6 -48 -16 -53 -17 -135 -2 -136 7 0 27 -4 43
-8 60 -14 67 -11 70 26 2 19 6 46 9 60 16 70 16 72 -18 106 -34 34 -30 44 14
44 20 0 49 40 56 77 3 14 11 40 19 58 13 32 12 33 -13 39 -97 24 -100 24 -111
2 -6 -12 -13 -32 -15 -46 -6 -36 -23 -77 -35 -84 -19 -12 -21 14 -4 83 9 39
14 73 11 76 -10 11 -107 32 -117 25z"/>
<path d="M2543 6846 c-51 -18 -93 -30 -93 -27 0 3 -5 0 -12 -7 -7 -7 -20 -12
-30 -12 -10 0 -21 -7 -24 -15 -3 -8 17 -83 45 -166 29 -84 49 -159 47 -166 -3
-7 -12 -13 -21 -13 -13 0 -14 -4 -5 -21 7 -11 9 -23 6 -27 -8 -8 -6 -11 -80
134 -82 163 -103 186 -165 183 -29 -2 -63 -13 -91 -30 -71 -44 -90 -86 -70
-157 17 -63 21 -65 71 -39 71 36 69 33 48 77 -23 48 -23 50 -1 50 18 0 42 -37
42 -64 0 -8 -20 -38 -45 -68 -25 -30 -45 -65 -45 -77 0 -28 42 -111 69 -135
29 -26 88 -16 120 21 14 15 28 27 33 25 12 -3 118 46 118 55 0 5 14 9 31 10
17 1 49 13 72 25 58 32 58 61 7 216 -22 67 -40 124 -40 125 0 2 9 3 20 4 21 2
30 -18 90 -202 18 -55 34 -101 35 -103 5 -6 114 29 120 38 3 4 -2 27 -11 51
-9 24 -17 49 -18 54 -1 6 -24 74 -50 153 -36 105 -53 142 -65 141 -9 0 -58
-15 -108 -33z m-265 -420 c26 -51 27 -66 7 -66 -17 0 -55 78 -48 98 9 21 19
13 41 -32z"/>
<path d="M4520 6803 c-32 -12 -93 -103 -79 -117 2 -3 28 -14 57 -25 l53 -21
17 40 c18 43 54 58 47 19 -10 -53 -29 -66 -99 -67 -82 -1 -103 -12 -126 -68
-36 -84 -31 -130 19 -155 31 -16 49 -18 77 -8 18 6 21 4 17 -12 -4 -13 0 -19
10 -19 8 0 35 -8 59 -19 l44 -19 24 62 c13 33 28 67 33 74 5 6 6 12 2 12 -4 0
-2 7 5 15 7 8 9 15 4 15 -5 0 -4 4 1 8 6 4 22 43 37 86 28 85 26 109 -14 149
-43 42 -140 68 -188 50z m25 -287 c-20 -51 -39 -73 -50 -56 -10 16 14 78 38
95 29 21 32 13 12 -39z"/>
<path d="M4810 6647 c-13 -28 -53 -106 -87 -172 -35 -66 -66 -129 -69 -140 -4
-17 9 -27 83 -64 125 -61 129 -64 109 -93 -23 -33 -20 -42 22 -65 l39 -20 37
75 c26 51 34 78 27 85 -7 7 14 57 66 159 42 81 74 150 72 152 -6 5 -107 56
-112 56 -2 0 -37 -65 -77 -145 -54 -106 -79 -145 -92 -145 -10 0 -18 5 -18 11
0 12 126 267 142 286 5 6 5 13 1 16 -26 16 -107 57 -112 57 -3 0 -17 -24 -31
-53z"/>
<path d="M1792 6483 c-92 -57 -104 -73 -78 -102 7 -9 57 -85 110 -168 54 -84
99 -153 102 -153 2 0 46 27 97 61 130 84 141 109 95 201 -14 28 -62 63 -77 54
-4 -3 -17 1 -27 9 -11 8 -14 14 -6 15 18 0 15 51 -5 80 -53 78 -89 79 -211 3z
m111 -77 c14 -21 14 -26 2 -36 -11 -9 -17 -6 -31 15 -15 23 -15 28 -3 36 8 5
15 9 15 9 1 0 9 -11 17 -24z m90 -137 c16 -23 15 -59 -2 -59 -9 0 -51 64 -51
77 0 19 33 7 53 -18z"/>
<path d="M5080 6329 l-123 -173 43 -37 c48 -41 52 -41 122 8 26 18 52 33 58
33 5 0 10 4 10 8 0 8 43 32 57 32 4 0 -3 -10 -15 -22 -24 -27 -102 -140 -102
-150 0 -3 17 -17 38 -29 20 -13 40 -27 43 -32 3 -5 63 71 132 169 l125 178
-46 33 c-26 18 -50 33 -55 33 -4 0 -48 -27 -97 -60 -50 -33 -90 -56 -90 -51 0
5 3 11 8 13 4 2 30 37 58 78 57 84 58 75 -17 124 l-27 17 -122 -172z"/>
<path d="M3437 6374 c-1 -1 -47 -5 -102 -9 -127 -9 -136 -10 -270 -31 -88 -14
-323 -76 -390 -104 -11 -4 -51 -20 -90 -35 -38 -16 -103 -43 -143 -62 -40 -18
-76 -33 -81 -33 -5 0 -11 -4 -13 -9 -1 -5 -25 -20 -53 -35 -62 -32 -69 -37
-180 -110 -167 -111 -352 -273 -490 -431 -70 -81 -205 -260 -205 -273 0 -4 -8
-17 -17 -28 -21 -24 -31 -39 -99 -167 -80 -150 -188 -416 -199 -492 -2 -11 -8
-32 -14 -47 -6 -16 -8 -28 -5 -28 2 0 0 -9 -5 -19 -6 -10 -13 -35 -15 -54 -2
-20 -7 -44 -10 -54 -2 -10 -8 -36 -11 -58 -3 -22 -8 -53 -10 -70 -14 -94 -18
-160 -19 -340 -1 -177 6 -313 20 -379 3 -12 7 -39 10 -61 17 -123 100 -405
161 -549 69 -160 206 -396 309 -532 86 -113 236 -274 355 -380 36 -32 231
-181 265 -201 161 -99 290 -168 389 -208 39 -16 74 -32 79 -37 6 -4 18 -8 28
-8 10 0 29 -7 42 -15 22 -15 33 -13 146 20 67 19 126 38 131 41 5 3 19 7 30 9
19 4 50 13 106 30 12 4 3 24 -112 243 -17 31 -42 79 -58 106 -15 27 -25 51
-23 53 3 3 86 -77 186 -177 114 -115 178 -186 172 -192 -5 -5 -18 -11 -28 -13
-11 -2 -20 -4 -21 -5 -2 -2 -6 -3 -10 -5 -5 -1 -15 -4 -23 -8 -8 -3 -49 -16
-90 -28 -41 -12 -82 -24 -90 -27 -8 -3 -17 -6 -20 -7 -42 -11 -129 -37 -140
-42 -8 -3 -21 -7 -28 -9 -11 -2 -145 -43 -237 -72 -11 -3 -22 -7 -25 -7 -8 -2
-153 -46 -169 -51 -8 -2 -11 -7 -8 -10 3 -3 274 -6 602 -6 l597 -1 -144 -143
-144 -143 -94 30 c-52 17 -106 32 -119 35 -13 3 -31 9 -40 13 -9 5 -20 10 -26
11 -5 2 -14 4 -20 5 -5 1 -26 7 -45 13 -19 6 -55 16 -80 23 -60 17 -49 13
-195 59 -71 23 -137 43 -145 45 -74 19 -155 46 -159 52 -3 5 -30 8 -58 8 -34
0 -49 -3 -43 -9 5 -5 15 -11 22 -12 7 -2 110 -33 228 -69 297 -92 433 -133
518 -158 39 -11 72 -24 72 -28 0 -5 -10 -25 -21 -46 -12 -21 -42 -76 -67 -123
-25 -47 -61 -114 -80 -150 -19 -36 -41 -77 -49 -92 -8 -16 -21 -28 -29 -28 -8
0 -12 -4 -9 -10 3 -5 2 -10 -3 -10 -6 0 -12 -7 -16 -15 -5 -13 57 16 189 90
55 31 255 137 282 149 21 10 32 36 16 36 -5 0 -53 -24 -108 -54 -55 -29 -149
-79 -210 -111 l-110 -58 195 195 c143 143 198 193 208 185 6 -5 12 -14 12 -20
0 -6 13 -54 30 -107 16 -52 31 -104 33 -115 1 -11 5 -24 9 -30 5 -8 46 -139
53 -170 1 -5 5 -17 8 -25 3 -8 9 -28 13 -45 8 -34 8 -34 17 -55 12 -31 48
-147 52 -169 2 -12 13 -48 24 -79 32 -96 45 -162 31 -162 -4 0 -6 -10 -3 -21
6 -21 6 -21 19 3 7 14 15 38 18 54 2 16 5 30 6 32 2 1 3 5 4 10 1 4 12 39 25
77 12 39 24 78 26 87 2 10 22 75 43 145 22 71 52 169 67 218 14 50 29 97 32
105 4 8 7 17 7 20 1 3 7 23 15 46 12 38 15 40 37 30 13 -6 22 -16 20 -23 -3
-7 1 -10 9 -7 7 3 46 -12 87 -34 40 -22 109 -59 153 -82 148 -80 165 -91 165
-107 0 -7 7 -13 15 -13 12 0 10 9 -9 43 -83 153 -119 222 -115 222 2 0 -5 14
-17 30 -18 26 -41 68 -91 168 -8 15 -21 27 -29 27 -8 0 -14 -2 -14 -3 0 -2 22
-44 48 -93 107 -197 173 -324 168 -324 -2 0 -11 6 -18 14 -128 133 -353 356
-360 356 -15 0 -4 23 13 26 7 2 52 15 99 29 47 15 92 28 100 30 8 2 83 25 165
51 83 26 157 48 165 49 8 1 27 7 41 13 15 6 46 16 70 22 40 10 138 41 244 75
50 16 116 19 95 3 -12 -8 -11 -9 3 -4 10 3 21 6 23 6 2 0 4 5 4 10 0 6 -6 10
-14 10 -7 0 -55 13 -107 29 -52 16 -148 46 -214 66 -66 20 -135 41 -153 47
l-34 10 84 34 c234 95 468 238 679 414 67 56 251 240 287 288 15 20 37 47 49
60 12 13 39 49 60 80 21 31 44 63 51 70 24 26 142 232 188 329 124 263 203
546 232 837 16 166 5 523 -21 641 -3 11 -8 40 -12 65 -17 107 -69 295 -105
385 -5 11 -19 47 -31 80 -22 57 -129 275 -167 340 -265 456 -705 835 -1212
1044 -58 24 -109 44 -115 45 -5 2 -48 14 -95 29 -86 27 -226 61 -290 71 -19 3
-46 8 -60 10 -90 17 -441 40 -453 30z m-62 -1024 c4 -6 -33 -26 -65 -34 -38
-10 -213 -105 -239 -129 -72 -68 -296 -395 -333 -486 -16 -39 -19 -93 -7 -122
12 -30 237 -182 291 -197 118 -33 184 18 321 245 39 65 83 108 126 125 41 16
130 17 176 4 38 -12 155 -89 163 -108 2 -5 9 -8 15 -8 7 0 24 -11 39 -25 15
-14 30 -25 32 -25 3 0 14 -7 23 -15 20 -16 397 -285 421 -300 9 -5 21 -14 26
-18 27 -20 127 -91 266 -191 58 -41 110 -79 116 -84 5 -5 30 -22 55 -38 24
-16 46 -31 49 -35 3 -3 52 -39 110 -80 181 -128 190 -135 190 -168 0 -30 -54
-87 -134 -141 -72 -48 -119 -46 -216 12 -100 59 -164 101 -168 111 -2 4 -8 7
-12 7 -8 0 -75 46 -405 274 -38 27 -77 55 -85 62 -8 7 -26 15 -40 19 -34 8
-67 -25 -54 -54 8 -17 262 -198 583 -416 83 -56 106 -84 97 -117 -6 -25 -86
-87 -167 -129 -81 -43 -106 -36 -289 85 -86 58 -191 130 -234 160 -42 31 -79
56 -82 56 -3 0 -14 9 -26 20 -26 24 -61 26 -81 5 -32 -32 -11 -55 160 -173 26
-19 103 -72 170 -118 68 -47 127 -94 133 -105 9 -15 7 -26 -10 -49 -12 -17
-24 -30 -28 -30 -4 0 -20 -11 -37 -25 -123 -101 -143 -101 -303 -1 -146 91
-245 157 -252 166 -10 15 -50 -10 -56 -36 -8 -31 -9 -29 131 -128 160 -113
162 -118 83 -182 -23 -19 -112 -68 -128 -72 -56 -12 -76 -7 -152 32 -140 72
-130 64 -122 99 17 75 -3 127 -68 178 -24 19 -47 37 -53 42 -49 39 -132 97
-142 98 -7 1 -17 3 -23 4 -5 1 -14 3 -20 4 -5 0 -7 15 -5 33 5 36 -18 96 -44
118 -10 8 -53 43 -94 78 -63 52 -84 63 -121 67 -56 6 -90 -7 -123 -44 l-25
-28 -52 51 c-28 28 -71 67 -94 86 -24 19 -57 47 -74 61 -34 29 -88 49 -116 44
-9 -2 -25 -4 -35 -4 -10 -1 -43 -27 -74 -58 l-55 -57 -27 31 c-26 31 -149 122
-186 138 -64 26 -126 24 -174 -8 l-38 -25 -234 79 c-129 43 -235 79 -236 80
-2 1 -6 2 -10 3 -5 1 -57 17 -116 36 l-109 35 6 80 c11 143 47 320 99 490 12
39 22 72 22 75 1 3 8 21 17 41 9 20 19 47 23 60 15 49 146 307 194 381 l49 76
130 -48 c72 -27 140 -53 151 -60 12 -6 21 -8 21 -5 0 4 6 3 13 -2 6 -4 17 -8
22 -10 6 -1 78 -27 160 -59 192 -72 247 -86 315 -80 61 5 140 27 140 38 0 5 4
8 9 8 5 0 106 47 225 105 119 58 218 105 220 105 3 0 37 15 78 34 102 47 150
67 172 72 11 2 24 8 29 13 11 11 195 13 202 1z m398 -9 c6 -6 19 -11 28 -11
10 0 19 -3 21 -8 4 -9 25 -20 405 -213 255 -130 297 -149 339 -149 35 0 99 19
233 69 266 100 699 244 710 236 18 -10 120 -182 181 -303 47 -94 122 -267 126
-292 0 -3 12 -43 26 -90 29 -95 54 -195 64 -254 3 -21 8 -48 10 -60 8 -37 13
-79 19 -141 2 -33 7 -70 9 -82 4 -19 -2 -24 -52 -39 -31 -9 -64 -18 -72 -19
-8 -2 -49 -14 -90 -25 -41 -12 -82 -23 -90 -25 -8 -2 -82 -23 -165 -46 -325
-91 -311 -88 -353 -62 -36 23 -226 156 -232 163 -3 3 -18 14 -33 23 -16 10
-36 24 -45 32 -50 41 -113 85 -121 85 -5 0 -11 4 -13 8 -1 4 -25 23 -53 42
-27 19 -52 37 -55 41 -3 3 -45 34 -95 70 -95 68 -170 123 -195 142 -8 7 -62
46 -120 87 -58 41 -107 77 -110 80 -3 3 -30 23 -60 45 -30 22 -61 45 -68 52
-7 7 -17 13 -21 13 -4 0 -16 8 -27 18 -50 47 -154 111 -199 124 -108 30 -248
0 -329 -71 -28 -24 -106 -133 -106 -148 0 -7 -3 -13 -7 -13 -5 0 -26 -28 -48
-63 -49 -77 -61 -86 -106 -87 -58 0 -249 124 -249 162 0 38 48 123 142 255
172 240 188 255 308 308 36 15 89 39 119 52 148 68 276 110 319 107 25 -1 50
-8 55 -13z m-1771 -1618 c26 -18 51 -33 54 -33 4 0 22 -16 40 -35 36 -36 45
-85 21 -116 -16 -21 -67 -46 -92 -44 -51 2 -200 109 -211 149 -9 37 19 90 57
109 42 20 70 14 131 -30z m428 -50 c12 -10 31 -26 43 -36 12 -10 44 -37 71
-60 27 -23 55 -48 63 -55 18 -19 16 -55 -4 -79 -10 -11 -34 -40 -55 -64 -89
-107 -101 -119 -122 -119 -21 0 -64 27 -98 60 -8 8 -30 26 -48 40 -59 45 -100
89 -100 109 0 17 22 50 65 97 5 6 26 31 45 54 70 86 91 94 140 53z m492 -195
c86 -70 108 -94 108 -117 0 -16 -71 -110 -132 -175 -7 -8 -35 -42 -63 -76 -27
-34 -58 -66 -68 -71 -19 -11 -54 -3 -73 15 -9 9 -66 57 -113 96 -24 20 -31 39
-22 64 8 20 143 191 171 216 3 3 23 26 44 53 26 32 46 47 62 47 13 0 50 -22
86 -52z m244 -274 c21 -15 41 -30 42 -35 2 -5 8 -9 14 -9 6 0 35 -20 64 -45
50 -43 68 -78 51 -100 -65 -84 -113 -144 -128 -162 -36 -43 -60 -32 -232 108
-33 27 -38 36 -33 61 3 16 25 53 48 82 24 30 56 70 71 90 33 43 51 45 103 10z
m434 -629 c12 -44 31 -107 42 -140 11 -33 21 -67 23 -75 2 -8 23 -76 45 -150
23 -74 43 -142 45 -150 31 -112 71 -230 78 -230 5 0 48 21 96 46 47 26 138 74
201 106 l115 60 -190 -191 c-104 -105 -193 -191 -196 -191 -7 0 -47 125 -146
460 -14 47 -31 103 -39 125 -7 22 -25 81 -39 130 -14 50 -31 101 -36 115 -18
49 -42 188 -29 173 4 -5 17 -44 30 -88z m-36 -605 c0 -325 -3 -591 -7 -593
-11 -4 -284 272 -277 280 6 6 32 92 35 113 1 6 40 133 62 200 8 25 16 52 18
60 6 23 85 283 92 300 3 8 7 20 8 26 2 7 15 49 29 94 14 46 26 89 26 97 0 7 3
13 8 13 4 0 7 -266 6 -590z m-509 10 c17 -9 75 -41 130 -70 106 -55 128 -70
121 -77 -4 -4 -59 24 -276 140 -122 66 -129 69 -142 61 -7 -4 -10 -4 -6 1 4 4
-7 21 -25 37 -27 25 -18 22 68 -22 55 -29 114 -60 130 -70z m1231 73 c-8 -16
-55 -104 -105 -198 -50 -93 -99 -185 -108 -202 -10 -18 -21 -33 -25 -33 -15 0
-21 -12 135 280 41 77 86 159 94 173 2 4 9 7 14 7 5 0 3 -12 -5 -27z m-321
-442 c39 -12 77 -23 85 -26 50 -14 157 -47 230 -71 47 -15 90 -28 95 -28 10
-1 163 -48 215 -66 14 -5 60 -19 103 -31 42 -12 76 -24 73 -26 -3 -3 -885 -6
-1154 -3 l-44 0 139 140 c154 156 136 148 258 111z m-127 -533 c13 -16 14 -14
-65 -263 -8 -27 -16 -54 -17 -60 -1 -5 -12 -41 -24 -80 -12 -38 -53 -173 -92
-300 -67 -224 -69 -228 -70 -170 -2 59 -2 1093 -1 1128 1 11 45 -27 129 -111
70 -70 133 -135 140 -144z"/>
<path d="M1573 6331 c-24 -21 -43 -43 -43 -48 0 -6 9 -21 21 -34 11 -13 28
-33 38 -44 24 -29 32 -53 19 -61 -6 -4 -20 4 -31 17 -10 13 -35 41 -55 63 -29
31 -37 36 -46 25 -6 -8 -27 -28 -47 -45 l-36 -31 29 -34 c17 -19 44 -50 61
-70 18 -20 52 -60 77 -89 25 -29 61 -71 80 -93 l36 -39 49 44 48 44 -24 28
c-13 16 -39 45 -56 64 -38 40 -41 52 -14 52 11 0 38 -21 61 -49 23 -27 49 -52
57 -55 9 -4 35 10 63 32 l48 39 -31 29 c-18 17 -44 45 -60 62 -22 26 -35 32
-65 32 -21 0 -43 -5 -50 -12 -16 -16 -15 -8 3 35 17 41 13 59 -24 103 -14 17
-33 41 -41 52 -8 12 -17 22 -20 22 -3 -1 -24 -18 -47 -39z"/>
<path d="M5663 6276 c-11 -14 -16 -36 -14 -69 0 -11 15 -32 31 -47 25 -23 37
-28 67 -24 20 3 42 12 49 22 11 14 10 20 -8 33 -17 13 -26 14 -40 5 -26 -15
-52 17 -37 46 8 15 7 23 -8 34 -22 17 -25 17 -40 0z"/>
<path d="M5489 6198 c-28 -29 -94 -97 -145 -150 -52 -53 -94 -101 -94 -106 0
-4 12 -19 28 -33 58 -53 52 -53 156 -4 53 25 98 45 101 45 3 0 -26 -33 -65
-72 -38 -40 -70 -75 -70 -78 1 -8 23 -32 52 -59 l27 -23 113 118 c62 65 128
133 146 151 17 18 32 36 32 41 0 8 -75 82 -83 82 -8 0 -136 -58 -169 -76 -48
-26 -42 -15 30 60 40 41 72 78 71 82 0 5 -18 24 -40 42 l-38 34 -52 -54z"/>
<path d="M1220 6003 c-54 -60 -54 -52 0 -157 28 -53 47 -96 43 -96 -4 0 -37
27 -73 60 -36 33 -69 60 -74 60 -11 0 -75 -70 -76 -82 0 -4 9 -13 19 -20 11
-8 46 -37 78 -65 32 -28 96 -83 142 -123 l83 -71 21 23 c11 13 29 33 40 45 19
21 19 22 -32 118 -28 54 -51 99 -51 102 0 4 53 -39 124 -101 16 -14 32 -26 35
-25 3 0 21 19 40 40 l34 40 -39 38 c-21 20 -66 59 -99 86 -32 28 -66 57 -75
65 -23 23 -107 90 -111 90 -2 0 -15 -12 -29 -27z"/>
<path d="M5848 5824 c-26 -13 -49 -28 -53 -34 -4 -6 -11 -8 -16 -5 -5 4 -9 1
-9 -4 0 -6 -6 -11 -12 -11 -7 0 -43 -32 -80 -71 l-68 -71 21 -29 c11 -16 24
-29 28 -29 4 0 36 30 72 68 36 37 83 76 105 87 21 11 41 22 44 25 3 3 17 11
32 19 28 14 28 23 -4 63 -12 15 -16 15 -60 -8z"/>
<path d="M5890 5714 c-40 -21 -93 -63 -138 -110 l-73 -75 27 -28 26 -28 77 76
c45 45 100 88 134 106 32 16 60 32 63 37 7 10 -26 58 -40 58 -6 0 -40 -16 -76
-36z"/>
<path d="M968 5695 c-6 -14 -14 -25 -18 -25 -4 0 -12 -12 -19 -27 -12 -25 -10
-30 16 -51 15 -12 34 -27 41 -33 6 -5 12 -7 12 -3 0 4 9 -3 20 -16 21 -24 24
-33 14 -42 -7 -7 -64 24 -64 35 0 4 -5 7 -11 7 -6 0 -24 9 -39 20 l-28 20 -31
-48 c-17 -27 -31 -54 -31 -59 0 -9 141 -108 174 -122 4 -2 42 -26 83 -53 41
-27 80 -51 87 -54 10 -4 76 84 76 102 0 2 -34 26 -76 53 -47 30 -72 51 -65 56
13 7 63 -2 71 -14 8 -12 80 -51 94 -51 7 0 23 19 36 43 13 23 28 45 34 49 12
8 2 21 -19 24 -8 1 -28 12 -44 23 -16 12 -34 21 -40 21 -6 0 -11 4 -11 9 0 26
-84 12 -107 -18 -10 -13 -12 -9 -9 24 4 52 -8 77 -47 100 -18 10 -39 27 -48
37 -22 25 -37 23 -51 -7z"/>
<path d="M6083 5662 c-12 -2 -27 -10 -33 -18 -7 -8 -16 -14 -21 -14 -8 0 -74
-40 -104 -63 -5 -4 -36 -24 -68 -46 -72 -48 -104 -89 -102 -133 6 -109 110
-202 197 -177 30 8 108 54 108 63 0 12 -64 106 -72 106 -13 0 -72 -33 -76 -42
-6 -14 -40 -8 -46 7 -4 11 12 26 52 52 31 20 94 60 139 90 82 52 106 62 118
44 7 -13 -17 -35 -71 -67 l-44 -26 23 -41 c12 -22 30 -49 39 -60 16 -19 17
-18 60 11 97 66 114 100 93 177 -26 95 -104 151 -192 137z"/>
<path d="M755 5351 c-14 -28 -25 -54 -25 -59 0 -5 27 -22 60 -38 37 -18 60
-35 60 -46 0 -29 -15 -28 -82 7 l-64 34 -27 -53 c-32 -63 -33 -73 -9 -80 10
-4 60 -29 112 -56 52 -28 100 -50 106 -50 7 0 14 -3 16 -7 4 -10 75 -48 105
-57 18 -6 25 -1 40 26 9 18 16 36 15 41 -1 4 2 7 8 7 5 0 10 8 10 19 0 13 -19
28 -65 50 -66 31 -71 36 -56 59 6 11 23 6 76 -22 38 -20 69 -35 70 -33 1 1 16
28 33 59 l31 56 -92 47 c-51 26 -130 67 -177 91 -122 63 -115 63 -145 5z"/>
<path d="M6231 5305 c-26 -12 -32 -19 -26 -32 19 -46 17 -58 -17 -72 -18 -8
-62 -28 -98 -44 -36 -16 -89 -39 -117 -52 l-52 -24 25 -58 c14 -32 27 -59 28
-61 3 -2 60 23 214 94 41 19 79 34 87 34 7 0 18 -13 25 -30 7 -16 13 -30 14
-30 1 0 21 9 44 20 34 17 40 24 33 38 -14 25 -70 149 -88 193 -17 43 -23 45
-72 24z"/>
<path d="M630 4999 c-34 -14 -53 -37 -73 -87 -31 -77 -18 -138 38 -172 45 -28
214 -83 256 -83 47 0 81 24 110 79 46 90 25 169 -55 207 -54 26 -67 19 -86
-41 l-18 -53 27 -10 c48 -17 71 -32 71 -46 0 -7 -8 -13 -18 -13 -25 0 -112 30
-112 38 0 15 36 122 43 128 14 15 6 25 -30 41 -48 19 -121 25 -153 12z m45
-119 c4 -6 10 -8 15 -5 13 8 20 -9 10 -25 -7 -11 -13 -11 -39 0 -17 7 -31 19
-31 26 0 16 36 19 45 4z"/>
<path d="M6315 4989 c-61 -15 -61 -14 -20 -127 3 -9 10 -10 23 -3 34 18 70 20
76 5 5 -14 -2 -18 -62 -39 -7 -3 -20 4 -30 14 -9 10 -35 37 -56 60 -36 39 -42
42 -79 37 -62 -9 -124 -43 -135 -74 -12 -37 2 -81 35 -110 15 -13 22 -20 15
-17 -16 9 -12 -38 8 -93 13 -34 33 -37 79 -12 12 6 21 8 21 5 0 -3 9 -1 21 5
11 6 28 13 37 15 55 11 189 68 209 88 14 13 25 38 27 59 4 40 -13 118 -26 118
-4 0 -8 6 -8 13 0 15 -46 52 -75 59 -11 3 -38 2 -60 -3z m-71 -186 c13 -9 -91
-43 -109 -36 -23 8 -18 18 18 35 30 15 68 15 91 1z"/>
<path d="M484 4653 c-3 -15 -10 -43 -16 -61 -9 -31 -6 -46 10 -48 4 0 21 -4
37 -8 73 -18 162 -38 180 -42 96 -19 98 -20 85 -45 -6 -11 -15 -17 -20 -14 -5
3 -30 10 -57 16 -70 15 -120 26 -190 42 l-63 15 -11 -41 c-21 -77 -18 -90 21
-98 19 -5 55 -12 80 -18 25 -6 54 -12 65 -15 11 -2 38 -9 60 -14 22 -6 51 -13
65 -16 14 -3 35 -7 48 -10 64 -16 58 -21 82 77 25 102 28 117 29 134 1 10 16
10 75 0 10 -2 29 59 23 76 -1 5 -37 18 -78 28 -92 22 -89 22 -89 3 0 -8 -3
-13 -8 -10 -4 2 -43 12 -87 21 -79 16 -96 20 -135 30 -11 3 -29 7 -41 10 -11
2 -29 7 -39 10 -15 5 -21 0 -26 -22z"/>
<path d="M6470 4659 c-19 -5 -46 -11 -60 -13 -79 -16 -252 -57 -275 -66 -21
-8 -25 -14 -19 -33 4 -12 10 -37 15 -55 4 -19 9 -36 12 -38 3 -3 35 2 71 11
86 19 88 19 84 -7 -2 -14 -11 -22 -28 -24 -14 -2 -34 -6 -45 -9 -11 -2 -22 -4
-25 -3 -3 1 -15 -4 -27 -10 -21 -12 -21 -15 -9 -55 7 -23 11 -47 9 -54 -7 -20
17 -25 65 -14 26 6 56 13 67 16 11 2 80 17 154 34 73 17 135 31 136 31 5 0 -5
63 -16 98 -6 17 -13 32 -17 32 -3 0 -35 -7 -70 -16 -54 -14 -66 -14 -73 -3
-11 17 -11 29 -1 30 40 4 137 35 137 44 -1 6 -4 34 -9 63 -9 56 -11 58 -76 41z"/>
<path d="M475 4264 c-22 -7 -41 -14 -43 -14 -14 -1 -42 -95 -41 -140 0 -58 12
-82 60 -114 46 -29 276 -42 322 -17 36 19 58 72 58 136 0 101 -39 139 -157
150 -139 13 -161 13 -199 -1z m155 -129 c52 -5 98 -10 103 -11 4 -1 12 -2 18
-3 8 -1 8 -5 0 -15 -8 -9 -26 -13 -54 -10 -23 2 -80 6 -127 9 -83 5 -108 14
-97 32 7 10 17 10 157 -2z"/>
<path d="M6226 4263 c-1 -1 -20 -3 -41 -4 -75 -3 -85 -8 -85 -43 0 -43 10 -54
48 -51 18 1 35 -2 38 -6 2 -5 7 -53 10 -108 l6 -100 -39 -3 c-33 -3 -38 -6
-39 -28 -2 -42 13 -71 32 -63 15 5 36 7 131 12 20 0 33 7 35 17 2 13 19 17 78
20 41 1 102 6 135 9 33 4 70 6 82 6 21 -1 22 3 18 52 -2 28 -7 90 -10 137 -4
47 -8 87 -11 89 -2 3 -56 6 -118 6 -124 2 -202 19 -209 46 -3 11 -14 17 -32
16 -14 -1 -28 -3 -29 -4z m257 -186 c36 -1 47 -5 45 -15 -3 -15 -23 -18 -158
-24 -65 -3 -65 -3 -68 26 l-4 28 69 -7 c37 -5 90 -8 116 -8z"/>
<path d="M6224 3823 c-13 -13 -24 -29 -25 -36 0 -7 -2 -21 -4 -32 -2 -11 3
-30 11 -42 16 -25 18 -37 5 -29 -12 8 -17 -10 -20 -72 -1 -35 2 -54 11 -57 15
-6 142 -14 271 -19 77 -2 91 0 111 18 37 33 48 64 49 131 1 76 -25 119 -81
135 -50 13 -82 13 -83 -2 0 -7 -2 -35 -2 -62 l-2 -50 40 -4 c68 -6 77 -37 10
-35 -18 1 -38 4 -44 7 -5 3 -19 36 -31 71 -26 79 -44 93 -129 98 -56 3 -66 1
-87 -20z m151 -123 c8 -7 15 -16 15 -20 0 -12 -102 -2 -115 11 -27 27 68 36
100 9z"/>
<path d="M688 3815 c-2 -1 -46 -6 -98 -9 -166 -12 -182 -16 -197 -49 -14 -31
-9 -84 11 -106 18 -20 22 -36 6 -26 -14 9 -14 -2 -6 -110 1 -18 8 -20 56 -19
52 1 83 3 300 21 47 3 95 6 108 6 24 -1 25 3 22 57 -1 19 -3 44 -4 55 -1 16
-8 20 -36 20 -43 0 -44 2 -30 39 13 36 5 78 -19 100 -15 14 -103 30 -113 21z
m62 -150 c0 -8 -10 -16 -22 -17 -13 0 -34 -2 -48 -4 -170 -17 -248 -13 -208
12 13 8 107 18 216 22 50 2 62 0 62 -13z"/>
<path d="M6125 3530 c-2 -3 -7 -22 -10 -41 -3 -19 -8 -45 -10 -59 -4 -20 -1
-26 12 -28 63 -7 71 -14 44 -41 -12 -12 -22 -28 -22 -36 -1 -8 -2 -21 -3 -27
-6 -43 44 -82 120 -93 22 -3 74 -13 116 -21 116 -23 154 -22 180 4 23 23 30
77 15 119 -7 18 -5 22 6 17 11 -4 16 7 21 43 4 26 9 55 12 64 3 12 -4 18 -28
23 -39 8 -128 24 -178 32 -19 2 -55 9 -80 14 -118 26 -191 37 -195 30z m225
-170 c132 -23 160 -31 160 -46 0 -17 -9 -17 -81 -4 -30 5 -65 11 -79 14 -83
14 -106 20 -118 29 -11 9 -11 12 4 17 10 4 26 6 34 4 8 -2 44 -8 80 -14z"/>
<path d="M443 3443 c-21 -4 -28 -14 -24 -36 1 -4 4 -24 7 -44 3 -19 8 -45 10
-57 3 -11 7 -34 9 -51 3 -16 7 -39 9 -50 2 -11 5 -26 5 -33 1 -10 11 -12 39
-8 20 3 41 5 46 6 5 0 6 18 3 40 -4 33 -2 40 11 41 10 0 26 3 37 5 11 3 34 7
51 9 18 3 67 12 110 21 44 9 87 16 97 16 16 -1 18 5 14 41 -9 76 -18 98 -36
93 -24 -8 -71 -16 -116 -22 -22 -3 -56 -9 -75 -14 -56 -14 -130 -21 -129 -13
1 4 1 20 0 36 -1 28 -11 31 -68 20z"/>
<path d="M858 3215 c-3 -3 -18 -8 -32 -11 -15 -2 -46 -11 -69 -19 -38 -12
-116 -34 -142 -39 -5 -2 -38 -11 -73 -21 -48 -14 -61 -21 -58 -34 3 -9 10 -37
17 -63 6 -27 13 -48 15 -48 2 0 36 9 74 19 69 19 88 16 77 -14 -3 -7 -30 -19
-61 -26 -78 -17 -80 -19 -65 -70 7 -24 14 -50 15 -57 4 -24 11 -24 84 -2 40
12 80 23 89 26 9 2 57 15 106 30 50 14 99 28 109 30 32 6 35 17 16 74 -17 52
-19 55 -49 52 -17 -1 -49 -8 -71 -16 -34 -12 -41 -11 -51 1 -7 8 -8 17 -3 22
13 12 104 41 127 41 15 0 18 5 13 23 -4 12 -9 29 -11 37 -2 8 -4 16 -5 18 -2
1 -4 7 -5 12 -1 6 -4 13 -5 18 -1 4 -2 10 -1 15 1 8 -33 10 -41 2z"/>
<path d="M6099 3144 c-1 -19 -8 -44 -19 -79 -7 -20 -10 -38 -7 -41 4 -5 195
-61 232 -68 11 -3 35 -10 52 -16 31 -11 33 -14 27 -50 -6 -37 -5 -38 30 -44
20 -4 39 -6 43 -6 5 1 16 29 26 63 59 206 59 204 20 212 -10 2 -26 6 -35 10
-13 5 -19 -1 -26 -27 -9 -37 -20 -40 -74 -21 -21 6 -38 10 -38 8 0 -3 -12 0
-27 6 -16 6 -57 20 -93 30 -36 9 -75 21 -87 24 -13 4 -23 3 -24 -1z"/>
<path d="M895 2856 c-71 -26 -72 -27 -42 -90 l27 -56 41 20 c40 21 69 21 69 0
0 -5 -26 -23 -58 -39 l-59 -30 -33 75 c-18 41 -36 74 -40 74 -16 0 -95 -39
-116 -57 -30 -25 -51 -72 -48 -106 4 -45 43 -115 76 -138 40 -29 101 -22 193
22 39 18 72 33 75 34 23 3 73 46 86 73 16 34 14 99 -4 126 -4 6 -7 13 -7 16 0
9 -29 44 -47 58 -27 22 -80 30 -113 18z m-95 -207 c0 -16 -31 -38 -52 -39 -29
0 -30 18 -1 34 34 18 53 20 53 5z"/>
<path d="M5977 2780 c-15 -27 -27 -56 -26 -62 0 -7 73 -49 162 -93 89 -44 164
-83 165 -87 2 -5 10 -8 18 -8 14 0 19 -21 8 -33 -4 -3 -90 36 -193 89 l-186
94 -31 -62 -31 -62 176 -89 c97 -49 200 -102 230 -119 29 -16 57 -26 62 -21
20 20 139 267 132 273 -12 12 -441 230 -451 230 -4 0 -20 -22 -35 -50z"/>
<path d="M1146 2630 c-26 -17 -51 -30 -56 -30 -6 0 -10 -4 -10 -8 0 -5 -12
-14 -26 -21 -17 -7 -24 -17 -20 -26 3 -10 -9 -24 -37 -43 -23 -15 -43 -30 -45
-34 -2 -5 -8 -8 -13 -8 -5 0 -62 -35 -127 -77 l-119 -78 18 -30 c10 -16 25
-42 34 -57 9 -16 18 -28 20 -28 3 0 82 50 176 110 94 61 175 108 180 104 23
-14 -3 -36 -157 -133 -91 -57 -167 -108 -170 -113 -3 -4 11 -33 31 -63 l37
-55 28 20 c15 11 33 20 39 20 6 0 11 4 11 9 0 5 14 14 30 21 17 7 30 16 30 21
0 5 5 9 12 9 6 0 19 6 27 14 9 8 27 21 41 28 14 7 69 42 122 76 l97 64 -18 31
c-39 71 -56 97 -63 97 -5 0 -8 5 -8 11 0 6 -9 24 -20 40 l-21 28 35 23 c20 13
36 27 36 31 0 4 -10 23 -23 42 l-24 35 -47 -30z"/>
<path d="M5828 2497 c-36 -68 -39 -79 -28 -106 10 -23 125 -109 205 -152 34
-18 42 -56 12 -51 -17 3 -234 136 -264 162 -9 8 -22 -4 -49 -45 -20 -30 -35
-57 -33 -59 11 -10 141 -96 144 -96 3 0 50 -29 104 -65 55 -36 103 -65 108
-65 8 1 147 212 158 241 4 12 -30 39 -139 109 -130 85 -143 96 -136 115 7 19
3 25 -26 38 l-34 17 -22 -43z"/>
<path d="M5624 2188 c-64 -70 -64 -63 4 -128 50 -47 59 -60 48 -69 -11 -9 -21
-5 -46 17 -69 64 -129 56 -199 -25 -46 -54 -59 -99 -41 -142 13 -33 156 -175
197 -196 41 -22 74 -18 119 11 40 26 86 82 91 113 6 32 -8 79 -32 107 -14 16
-25 34 -25 41 0 28 20 19 72 -32 31 -30 59 -55 61 -55 3 0 25 21 50 46 l44 47
-70 66 c-39 36 -91 86 -117 111 -26 25 -64 62 -86 83 l-40 37 -30 -32z m-42
-318 c40 -38 75 -70 78 -70 3 0 13 -13 23 -29 34 -59 -4 -42 -85 36 -112 108
-113 108 -115 121 -7 29 32 7 99 -58z"/>
<path d="M1304 2132 c-22 -14 -41 -28 -44 -32 -3 -3 -34 -30 -69 -60 -150
-128 -166 -155 -140 -246 20 -67 119 -131 179 -114 32 9 103 60 171 122 19 18
55 51 79 72 73 66 82 137 25 211 -57 75 -133 93 -201 47z m126 -106 c0 -13
-31 -43 -136 -131 -26 -22 -63 -54 -83 -71 -31 -29 -61 -35 -61 -14 0 4 30 35
68 68 189 167 212 184 212 148z"/>
<path d="M1585 1887 c-16 -8 -55 -42 -85 -76 -30 -35 -62 -70 -70 -79 -40 -43
-91 -112 -99 -134 -32 -85 61 -200 163 -203 44 -1 50 2 105 55 76 73 164 179
193 233 58 104 -95 255 -207 204z m97 -126 c-4 -11 -32 -48 -63 -83 -31 -34
-76 -87 -100 -115 -24 -29 -52 -53 -61 -53 -10 0 -18 3 -18 6 0 8 41 66 60 84
8 8 40 44 70 80 70 82 100 111 111 104 4 -2 5 -13 1 -23z"/>
<path d="M5238 1808 c-16 -5 -28 -13 -28 -18 0 -5 -8 -11 -17 -14 -30 -10 -63
-69 -63 -113 0 -29 8 -52 31 -82 32 -45 37 -45 80 1 9 10 21 18 28 18 6 0 11
7 11 15 0 8 -4 15 -8 15 -9 0 -42 54 -42 69 0 25 31 8 67 -36 21 -27 41 -50
44 -53 3 -3 22 -27 42 -54 57 -75 44 -105 -16 -39 l-29 32 -21 -20 c-12 -12
-32 -28 -44 -36 -13 -9 -23 -19 -23 -23 0 -17 54 -64 87 -75 91 -31 214 83
189 177 -5 21 -44 77 -101 147 -38 47 -88 91 -104 92 -9 1 -25 3 -36 4 -11 1
-32 -2 -47 -7z"/>
<path d="M1871 1663 c-25 -10 -54 -45 -115 -138 -91 -137 -115 -187 -110 -230
4 -49 43 -98 97 -124 72 -35 127 -26 175 28 36 42 41 49 54 76 6 14 15 25 20
25 4 0 8 4 8 9 0 5 21 43 46 85 73 119 66 181 -31 248 -39 27 -105 36 -144 21z
m101 -128 c-22 -36 -148 -235 -164 -258 -16 -22 -23 -25 -33 -17 -11 9 -7 22
23 70 20 33 61 97 90 144 29 46 58 86 65 89 15 5 28 -13 19 -28z"/>
<path d="M5051 1611 l-25 -19 38 -83 c26 -60 55 -104 99 -152 l62 -67 29 23
30 24 -63 74 c-35 41 -65 81 -68 89 -21 59 -58 130 -67 130 -6 0 -22 -9 -35
-19z"/>
<path d="M4953 1551 c-13 -11 -23 -22 -23 -25 0 -16 82 -175 102 -197 13 -14
38 -43 56 -63 l33 -37 34 21 35 21 -34 37 c-87 94 -84 88 -141 220 -21 47 -30
50 -62 23z"/>
</g>
</svg>
